<svg width="256" height="256" viewBox="0 0 256 256" fill="none" xmlns="http://www.w3.org/2000/svg">
  <rect width="256" height="256" rx="56" fill="#7C0000"/>
  <circle cx="128" cy="128" r="76" fill="#FFCC00" fill-opacity="0.16"/>
  <path d="M88 84C100 72 115 66 132 66C163 66 189 88 194 118H163C159 106 147 98 133 98C113 98 98 113 98 133C98 153 113 168 133 168C147 168 159 160 163 148H194C189 178 163 200 132 200C95 200 66 171 66 134C66 114 74 97 88 84Z" fill="#FFCC00"/>
  <path d="M144 106H182V136C182 157 165 174 144 174H114V144H144C149.523 144 154 139.523 154 134V106H144Z" fill="white"/>
  <path d="M114 82H144V112H114C108.477 112 104 116.477 104 122V150H74V122C74 99.9086 91.9086 82 114 82Z" fill="white"/>
</svg>
